<mxfile host="Electron" modified="2023-12-01T04:31:03.211Z" agent="Mozilla/5.0 (Windows NT 10.0; Win64; x64) AppleWebKit/537.36 (KHTML, like Gecko) draw.io/22.1.2 Chrome/114.0.5735.289 Electron/25.9.4 Safari/537.36" etag="A4XrUT2DhE_5s9gggm2p" version="22.1.2" type="device">
  <diagram name="Page-1" id="YNQ_AKMsbvwiw22mapTz">
    <mxGraphModel dx="1418" dy="1928" grid="1" gridSize="10" guides="1" tooltips="1" connect="1" arrows="1" fold="1" page="1" pageScale="1" pageWidth="850" pageHeight="1100" math="0" shadow="0">
      <root>
        <mxCell id="0" />
        <mxCell id="1" parent="0" />
        <mxCell id="ArmTjP24dRZgDeR_XTLX-1" value="P609&lt;br&gt;TRIP SYSTEM &#39;A&#39; RPS" style="rounded=0;whiteSpace=wrap;html=1;" parent="1" vertex="1">
          <mxGeometry x="10" y="250" width="150" height="40" as="geometry" />
        </mxCell>
        <mxCell id="ArmTjP24dRZgDeR_XTLX-4" value="P650&lt;br&gt;ATWS" style="rounded=0;whiteSpace=wrap;html=1;" parent="1" vertex="1">
          <mxGeometry x="240" y="520" width="80" height="40" as="geometry" />
        </mxCell>
        <mxCell id="ArmTjP24dRZgDeR_XTLX-5" value="P610&lt;br&gt;ROD TEST" style="rounded=0;whiteSpace=wrap;html=1;" parent="1" vertex="1">
          <mxGeometry x="260" y="160" width="70" height="40" as="geometry" />
        </mxCell>
        <mxCell id="ArmTjP24dRZgDeR_XTLX-7" value="P672&lt;br&gt;OFF-GAS" style="rounded=0;whiteSpace=wrap;html=1;" parent="1" vertex="1">
          <mxGeometry x="320" y="520" width="190" height="40" as="geometry" />
        </mxCell>
        <mxCell id="ArmTjP24dRZgDeR_XTLX-8" value="FIRE CONTROL PANEL 1" style="rounded=0;whiteSpace=wrap;html=1;" parent="1" vertex="1">
          <mxGeometry x="190" y="680" width="190" height="40" as="geometry" />
        </mxCell>
        <mxCell id="ArmTjP24dRZgDeR_XTLX-9" value="P651&lt;br&gt;ISOLATION VALVE &amp;amp;&lt;br&gt;STAT LIGHT DSPLY" style="rounded=0;whiteSpace=wrap;html=1;" parent="1" vertex="1">
          <mxGeometry x="380" y="680" width="180" height="40" as="geometry" />
        </mxCell>
        <mxCell id="ArmTjP24dRZgDeR_XTLX-10" value="P604 &lt;br&gt;PROCESS RADIATION MONITOR" style="rounded=0;whiteSpace=wrap;html=1;fillColor=#a20025;fontColor=#ffffff;strokeColor=#6F0000;" parent="1" vertex="1">
          <mxGeometry x="890" y="520" width="150" height="40" as="geometry" />
        </mxCell>
        <mxCell id="ArmTjP24dRZgDeR_XTLX-11" value="P626&lt;br&gt;DIV. I FUEL POOL COOLING FPC-1" style="rounded=0;whiteSpace=wrap;html=1;" parent="1" vertex="1">
          <mxGeometry x="770" y="250" width="150" height="40" as="geometry" />
        </mxCell>
        <mxCell id="ArmTjP24dRZgDeR_XTLX-12" value="" style="rounded=0;whiteSpace=wrap;html=1;" parent="1" vertex="1">
          <mxGeometry x="920" y="250" width="150" height="40" as="geometry" />
        </mxCell>
        <mxCell id="ArmTjP24dRZgDeR_XTLX-13" value="P611&lt;br&gt;TRIP SYSTEM &#39;B&#39; RPS" style="rounded=0;whiteSpace=wrap;html=1;" parent="1" vertex="1">
          <mxGeometry x="1210" y="250" width="200" height="40" as="geometry" />
        </mxCell>
        <mxCell id="ArmTjP24dRZgDeR_XTLX-19" value="P600&lt;br&gt;PROCESS RADIATION MONITOR" style="rounded=0;whiteSpace=wrap;html=1;fillColor=#0050ef;fontColor=#ffffff;strokeColor=#001DBC;" parent="1" vertex="1">
          <mxGeometry x="1040" y="520" width="130" height="40" as="geometry" />
        </mxCell>
        <mxCell id="ArmTjP24dRZgDeR_XTLX-20" value="SPARED" style="rounded=0;whiteSpace=wrap;html=1;" parent="1" vertex="1">
          <mxGeometry x="10" y="520" width="110" height="40" as="geometry" />
        </mxCell>
        <mxCell id="ArmTjP24dRZgDeR_XTLX-22" value="P628&lt;br&gt;ADS SYSTEM &#39;A&#39;" style="rounded=0;whiteSpace=wrap;html=1;" parent="1" vertex="1">
          <mxGeometry x="130" y="350" width="90" height="40" as="geometry" />
        </mxCell>
        <mxCell id="ArmTjP24dRZgDeR_XTLX-23" value="P634&lt;br&gt;RECIRC&lt;br&gt;CTRL" style="rounded=0;whiteSpace=wrap;html=1;fillColor=#a20025;fontColor=#ffffff;strokeColor=#6F0000;" parent="1" vertex="1">
          <mxGeometry x="120" y="520" width="120" height="40" as="geometry" />
        </mxCell>
        <mxCell id="ArmTjP24dRZgDeR_XTLX-24" value="BOARD &#39;L&#39;&lt;br&gt;MET RECD" style="rounded=0;whiteSpace=wrap;html=1;fillColor=#0050ef;fontColor=#ffffff;strokeColor=#001DBC;" parent="1" vertex="1">
          <mxGeometry x="410" y="-40" width="100" height="40" as="geometry" />
        </mxCell>
        <mxCell id="ArmTjP24dRZgDeR_XTLX-25" value="P632&lt;br&gt;DIV. I LEAK DETECTION" style="rounded=0;whiteSpace=wrap;html=1;fillColor=#0050ef;fontColor=#ffffff;strokeColor=#001DBC;" parent="1" vertex="1">
          <mxGeometry x="370" y="350" width="140" height="40" as="geometry" />
        </mxCell>
        <mxCell id="ArmTjP24dRZgDeR_XTLX-26" value="BOARD &#39;V&#39;&lt;br&gt;WETWELL MONITOR" style="rounded=0;whiteSpace=wrap;html=1;" parent="1" vertex="1">
          <mxGeometry x="1260" y="-40" width="150" height="40" as="geometry" />
        </mxCell>
        <mxCell id="ArmTjP24dRZgDeR_XTLX-27" value="BOARD &#39;J&#39;&lt;br&gt;CONTAINMENT&lt;br&gt;MONITOR" style="rounded=0;whiteSpace=wrap;html=1;fillColor=#0050ef;fontColor=#ffffff;strokeColor=#001DBC;" parent="1" vertex="1">
          <mxGeometry x="270" y="-40" width="140" height="40" as="geometry" />
        </mxCell>
        <mxCell id="ArmTjP24dRZgDeR_XTLX-28" value="BOARD &#39;H&#39;&lt;br&gt;CONTAINMENT VENT&amp;amp;&lt;br&gt;PURGE" style="rounded=0;whiteSpace=wrap;html=1;fillColor=#0050ef;fontColor=#ffffff;strokeColor=#001DBC;" parent="1" vertex="1">
          <mxGeometry x="110" y="-40" width="160" height="40" as="geometry" />
        </mxCell>
        <mxCell id="ArmTjP24dRZgDeR_XTLX-29" value="P631&lt;br&gt;ADS SYSTEM &#39;B&#39;" style="rounded=0;whiteSpace=wrap;html=1;" parent="1" vertex="1">
          <mxGeometry x="1170" y="350" width="120" height="40" as="geometry" />
        </mxCell>
        <mxCell id="ArmTjP24dRZgDeR_XTLX-36" value="SPARED" style="rounded=0;whiteSpace=wrap;html=1;" parent="1" vertex="1">
          <mxGeometry x="930" y="350" width="160" height="40" as="geometry" />
        </mxCell>
        <mxCell id="ArmTjP24dRZgDeR_XTLX-37" value="P642&lt;br&gt;DIV. 2 LEAK DETECTION" style="rounded=0;whiteSpace=wrap;html=1;fillColor=#0050ef;fontColor=#ffffff;strokeColor=#001DBC;" parent="1" vertex="1">
          <mxGeometry x="770" y="350" width="160" height="40" as="geometry" />
        </mxCell>
        <mxCell id="ArmTjP24dRZgDeR_XTLX-39" value="P623&lt;br&gt;OUTB ISOL VALVES" style="rounded=0;whiteSpace=wrap;html=1;" parent="1" vertex="1">
          <mxGeometry x="300" y="350" width="70" height="40" as="geometry" />
        </mxCell>
        <mxCell id="ArmTjP24dRZgDeR_XTLX-42" value="BOARD &#39;M&#39;&lt;br&gt;COOL.&lt;br&gt;TWR" style="rounded=0;whiteSpace=wrap;html=1;fillColor=#0050ef;fontColor=#ffffff;strokeColor=#001DBC;" parent="1" vertex="1">
          <mxGeometry x="770" y="-40" width="100" height="40" as="geometry" />
        </mxCell>
        <mxCell id="ArmTjP24dRZgDeR_XTLX-43" value="" style="rounded=0;whiteSpace=wrap;html=1;" parent="1" vertex="1">
          <mxGeometry x="1090" y="350" width="80" height="40" as="geometry" />
        </mxCell>
        <mxCell id="ArmTjP24dRZgDeR_XTLX-45" value="BOARD &#39;D&#39;&lt;br&gt;TEMPERATURE&lt;br&gt;SCANNER" style="rounded=0;whiteSpace=wrap;html=1;fillColor=#a20025;fontColor=#ffffff;strokeColor=#6F0000;" parent="1" vertex="1">
          <mxGeometry x="10" y="-40" width="100" height="40" as="geometry" />
        </mxCell>
        <mxCell id="ArmTjP24dRZgDeR_XTLX-46" value="BOARD &#39;N&#39;&lt;br&gt;RCC / SW&lt;br&gt;SYSTEMS" style="rounded=0;whiteSpace=wrap;html=1;fillColor=#0050ef;fontColor=#ffffff;strokeColor=#001DBC;" parent="1" vertex="1">
          <mxGeometry x="870" y="-40" width="100" height="40" as="geometry" />
        </mxCell>
        <mxCell id="ArmTjP24dRZgDeR_XTLX-47" value="BOARD &#39;P&#39;&lt;br&gt;CONTROL RM&lt;br&gt;HVAC" style="rounded=0;whiteSpace=wrap;html=1;fillColor=#a20025;fontColor=#ffffff;strokeColor=#6F0000;" parent="1" vertex="1">
          <mxGeometry x="970" y="-40" width="100" height="40" as="geometry" />
        </mxCell>
        <mxCell id="ArmTjP24dRZgDeR_XTLX-48" value="BOARD &#39;R&#39;&lt;br&gt;RWST/ REACTOR BLDG HVAC" style="rounded=0;whiteSpace=wrap;html=1;fillColor=#a20025;fontColor=#ffffff;strokeColor=#6F0000;" parent="1" vertex="1">
          <mxGeometry x="1070" y="-40" width="120" height="40" as="geometry" />
        </mxCell>
        <mxCell id="ArmTjP24dRZgDeR_XTLX-49" value="SPARED" style="rounded=0;whiteSpace=wrap;html=1;" parent="1" vertex="1">
          <mxGeometry x="1190" y="-40" width="70" height="40" as="geometry" />
        </mxCell>
        <mxCell id="ArmTjP24dRZgDeR_XTLX-50" value="P618&lt;br&gt;DIV II RHR &lt;br&gt;PMPS &#39;B&#39; &amp;amp; &#39;C&#39;" style="rounded=0;whiteSpace=wrap;html=1;fillColor=#0050ef;fontColor=#ffffff;strokeColor=#001DBC;" parent="1" vertex="1">
          <mxGeometry x="1290" y="350" width="130" height="40" as="geometry" />
        </mxCell>
        <mxCell id="ArmTjP24dRZgDeR_XTLX-51" value="P625&lt;br&gt;HIGH PRESSURE&lt;br&gt;CORE SPRAY" style="rounded=0;whiteSpace=wrap;html=1;" parent="1" vertex="1">
          <mxGeometry x="1290" y="520" width="120" height="40" as="geometry" />
        </mxCell>
        <mxCell id="ArmTjP24dRZgDeR_XTLX-52" value="CP-1401&lt;br&gt;H2/02 MONITOR" style="rounded=0;whiteSpace=wrap;html=1;fillColor=#0050ef;fontColor=#ffffff;strokeColor=#001DBC;" parent="1" vertex="1">
          <mxGeometry x="240" y="60" width="120" height="40" as="geometry" />
        </mxCell>
        <mxCell id="ArmTjP24dRZgDeR_XTLX-53" value="P616&lt;br&gt;ROD DRIVE CONTROL SYSTEM" style="rounded=0;whiteSpace=wrap;html=1;fillColor=#0050ef;fontColor=#ffffff;strokeColor=#001DBC;" parent="1" vertex="1">
          <mxGeometry x="130" y="160" width="130" height="40" as="geometry" />
        </mxCell>
        <mxCell id="ArmTjP24dRZgDeR_XTLX-55" value="" style="rounded=0;whiteSpace=wrap;html=1;" parent="1" vertex="1">
          <mxGeometry x="220" y="350" width="80" height="40" as="geometry" />
        </mxCell>
        <mxCell id="ArmTjP24dRZgDeR_XTLX-56" value="SPARED" style="rounded=0;whiteSpace=wrap;html=1;" parent="1" vertex="1">
          <mxGeometry x="260" y="250" width="250" height="40" as="geometry" />
        </mxCell>
        <mxCell id="ArmTjP24dRZgDeR_XTLX-57" value="P629&lt;br&gt;DIV. I LPCI &amp;amp; RHR PMP &#39;A&#39;" style="rounded=0;whiteSpace=wrap;html=1;fillColor=#0050ef;fontColor=#ffffff;strokeColor=#001DBC;" parent="1" vertex="1">
          <mxGeometry x="10" y="350" width="120" height="40" as="geometry" />
        </mxCell>
        <mxCell id="ArmTjP24dRZgDeR_XTLX-58" value="CP-1301&lt;br&gt;H2/02 MONITOR" style="rounded=0;whiteSpace=wrap;html=1;fillColor=#0050ef;fontColor=#ffffff;strokeColor=#001DBC;" parent="1" vertex="1">
          <mxGeometry x="360" y="60" width="130" height="40" as="geometry" />
        </mxCell>
        <mxCell id="ArmTjP24dRZgDeR_XTLX-59" value="" style="verticalLabelPosition=bottom;verticalAlign=top;html=1;shape=mxgraph.basic.rect;fillColor2=none;strokeWidth=8;size=20;indent=5;fillColor=none;" parent="1" vertex="1">
          <mxGeometry x="1760" y="330" width="480" height="280" as="geometry" />
        </mxCell>
        <mxCell id="ArmTjP24dRZgDeR_XTLX-61" value="&lt;font style=&quot;font-size: 29px;&quot;&gt;Remote Shutdown Room&lt;/font&gt;" style="rounded=0;whiteSpace=wrap;html=1;fillColor=#a20025;fontColor=#ffffff;strokeColor=#6F0000;" parent="1" vertex="1">
          <mxGeometry x="1720" y="220" width="560" height="60" as="geometry" />
        </mxCell>
        <mxCell id="ArmTjP24dRZgDeR_XTLX-62" value="H22-P100&lt;br&gt;RM. S/D" style="rounded=0;whiteSpace=wrap;html=1;fillColor=#0050ef;fontColor=#ffffff;strokeColor=#001DBC;" parent="1" vertex="1">
          <mxGeometry x="1870" y="440" width="90" height="40" as="geometry" />
        </mxCell>
        <mxCell id="ArmTjP24dRZgDeR_XTLX-63" value="FTRP-1&lt;br&gt;FIRE RM. XFR PANEL" style="rounded=0;whiteSpace=wrap;html=1;fillColor=#0050ef;fontColor=#ffffff;strokeColor=#001DBC;" parent="1" vertex="1">
          <mxGeometry x="1780" y="440" width="90" height="40" as="geometry" />
        </mxCell>
        <mxCell id="ArmTjP24dRZgDeR_XTLX-64" value="C51-P0001&lt;br&gt;REMOTE SHUTDOWN" style="rounded=0;whiteSpace=wrap;html=1;fillColor=#0050ef;fontColor=#ffffff;strokeColor=#001DBC;" parent="1" vertex="1">
          <mxGeometry x="1960" y="440" width="160" height="40" as="geometry" />
        </mxCell>
        <mxCell id="ArmTjP24dRZgDeR_XTLX-65" value="ARS&lt;br&gt;ALTERNATE REMOTE SHUTDOWN" style="rounded=0;whiteSpace=wrap;html=1;fillColor=#0050ef;fontColor=#ffffff;strokeColor=#001DBC;" parent="1" vertex="1">
          <mxGeometry x="1780" y="560" width="180" height="40" as="geometry" />
        </mxCell>
        <mxCell id="a87znMyRRmHNd6_JvCMK-2" value="P633&lt;br&gt;RPS B/RADN&lt;br&gt;MONITOR" style="rounded=0;whiteSpace=wrap;html=1;" parent="1" vertex="1">
          <mxGeometry x="1070" y="250" width="140" height="40" as="geometry" />
        </mxCell>
        <mxCell id="a87znMyRRmHNd6_JvCMK-3" value="P606&lt;br&gt;RPS A/RADN&lt;br&gt;MONITOR" style="rounded=0;whiteSpace=wrap;html=1;" parent="1" vertex="1">
          <mxGeometry x="160" y="250" width="100" height="40" as="geometry" />
        </mxCell>
        <mxCell id="a87znMyRRmHNd6_JvCMK-4" value="P673&lt;br&gt;AREA RADIATION MONITOR" style="rounded=0;whiteSpace=wrap;html=1;fillColor=#0050ef;fontColor=#ffffff;strokeColor=#001DBC;" parent="1" vertex="1">
          <mxGeometry x="1170" y="520" width="120" height="40" as="geometry" />
        </mxCell>
        <mxCell id="a87znMyRRmHNd6_JvCMK-5" value="P614&lt;br&gt;PROCESS&lt;br&gt;MISC MONITOR" style="rounded=0;whiteSpace=wrap;html=1;fillColor=#a20025;fontColor=#ffffff;strokeColor=#6F0000;" parent="1" vertex="1">
          <mxGeometry x="740" y="520" width="150" height="40" as="geometry" />
        </mxCell>
        <mxCell id="a87znMyRRmHNd6_JvCMK-7" value="SPARED" style="rounded=0;whiteSpace=wrap;html=1;" parent="1" vertex="1">
          <mxGeometry x="1210" y="160" width="200" height="40" as="geometry" />
        </mxCell>
        <mxCell id="a87znMyRRmHNd6_JvCMK-8" value="P608&lt;br&gt;POWER RANGE NEUTRON MONITORING" style="rounded=0;whiteSpace=wrap;html=1;" parent="1" vertex="1">
          <mxGeometry x="770" y="160" width="440" height="40" as="geometry" />
        </mxCell>
        <mxCell id="a87znMyRRmHNd6_JvCMK-9" value="P615&lt;br&gt;CONTROL ROD POSITION" style="rounded=0;whiteSpace=wrap;html=1;fillColor=#0050ef;fontColor=#ffffff;strokeColor=#001DBC;" parent="1" vertex="1">
          <mxGeometry x="10" y="160" width="120" height="40" as="geometry" />
        </mxCell>
        <mxCell id="a87znMyRRmHNd6_JvCMK-11" value="" style="rounded=0;whiteSpace=wrap;html=1;" parent="1" vertex="1">
          <mxGeometry x="590" y="460" width="100" height="100" as="geometry" />
        </mxCell>
        <mxCell id="a87znMyRRmHNd6_JvCMK-12" value="" style="rounded=0;whiteSpace=wrap;html=1;" parent="1" vertex="1">
          <mxGeometry x="590" y="70" width="100" height="100" as="geometry" />
        </mxCell>
        <mxCell id="tgA_pMCcHr-oFSd4atp1-2" value="FCP2" style="text;html=1;strokeColor=none;fillColor=none;align=center;verticalAlign=middle;whiteSpace=wrap;rounded=0;" parent="1" vertex="1">
          <mxGeometry x="190" y="650" width="100" height="30" as="geometry" />
        </mxCell>
        <mxCell id="tgA_pMCcHr-oFSd4atp1-3" value="FCP3" style="text;html=1;strokeColor=none;fillColor=none;align=center;verticalAlign=middle;whiteSpace=wrap;rounded=0;" parent="1" vertex="1">
          <mxGeometry x="280" y="650" width="100" height="30" as="geometry" />
        </mxCell>
        <mxCell id="oKy8_zSS2FKT6ifiQvRj-1" value="P621&lt;br&gt;RCIC" style="text;html=1;strokeColor=none;fillColor=none;align=center;verticalAlign=middle;whiteSpace=wrap;rounded=0;" parent="1" vertex="1">
          <mxGeometry x="230" y="320" width="60" height="30" as="geometry" />
        </mxCell>
        <mxCell id="oKy8_zSS2FKT6ifiQvRj-2" value="P622&lt;br&gt;INB ISOL VALVES" style="text;html=1;strokeColor=none;fillColor=none;align=center;verticalAlign=middle;whiteSpace=wrap;rounded=0;" parent="1" vertex="1">
          <mxGeometry x="1100" y="310" width="60" height="30" as="geometry" />
        </mxCell>
        <mxCell id="oKy8_zSS2FKT6ifiQvRj-3" value="P627&lt;br&gt;DIV. II FUEL POOL COOLING FPC-2" style="text;html=1;strokeColor=none;fillColor=none;align=center;verticalAlign=middle;whiteSpace=wrap;rounded=0;" parent="1" vertex="1">
          <mxGeometry x="920" y="210" width="150" height="40" as="geometry" />
        </mxCell>
        <mxCell id="oKy8_zSS2FKT6ifiQvRj-4" value="P628&lt;br&gt;ADS &#39;A&#39; AUX RELAYS" style="rounded=0;whiteSpace=wrap;html=1;" parent="1" vertex="1">
          <mxGeometry x="1000" y="60" width="80" height="40" as="geometry" />
        </mxCell>
      </root>
    </mxGraphModel>
  </diagram>
</mxfile>
